HIERARCHY
ROOT hip
{
OFFSET 0 0 0
CHANNELS 3 Zrotation Yrotation Xrotation 
JOINT abdomen
{
	OFFSET 0 20.6881 -0.73152
	CHANNELS 3 Zrotation Yrotation Xrotation 
	JOINT chest
	{
		OFFSET 0 11.7043 -0.48768
		CHANNELS 3 Zrotation Yrotation Xrotation 
		JOINT neck
		{
			OFFSET 0 22.1894 -2.19456
			CHANNELS 3 Zrotation Yrotation Xrotation 
			End Site
			{
				OFFSET 0 10 0
			}
		}
		JOINT rcollar
		{
			OFFSET -2.68224 19.2634 -4.8768
			CHANNELS 3 Zrotation Yrotation Xrotation 
			JOINT rshldr
			{
				OFFSET -8.77824 -1.95073 1.46304
				CHANNELS 3 Zrotation Yrotation Xrotation 
				JOINT rforearm
				{
					OFFSET -28.1742 -1.7115 0.48768
					CHANNELS 3 Zrotation Yrotation Xrotation 
					JOINT rhand
					{
						OFFSET -22.5879 0.773209 7.07136
						CHANNELS 3 Zrotation Yrotation Xrotation 
						End Site
						{
							OFFSET -11.24714 1.18213 3.41376
						}
					}
				}
			}
		}
		JOINT lcollar
		{
			OFFSET 2.68224 19.2634 -4.8768
			CHANNELS 3 Zrotation Yrotation Xrotation 
			JOINT lshldr
			{
				OFFSET 8.77824 -1.95073 1.46304
				CHANNELS 3 Zrotation Yrotation Xrotation 
				JOINT lforearm
				{
					OFFSET 28.1742 -1.7115 0.48768
					CHANNELS 3 Zrotation Yrotation Xrotation 
					JOINT lhand
					{
						OFFSET 22.5879 0.773209 7.07136
						CHANNELS 3 Zrotation Yrotation Xrotation 
						End Site
						{
							OFFSET 11.24714 1.18213 3.41376
						}
					}
				}
			}
		}
	}
}
JOINT rbuttock
{
	OFFSET -8.77824 4.35084 1.2192
	CHANNELS 3 Zrotation Yrotation Xrotation 
	JOINT rthigh
	{
		OFFSET 0 -1.70687 -2.19456
		CHANNELS 3 Zrotation Yrotation Xrotation 
		JOINT rshin
		{
			OFFSET 0 -36.8199 0.73152
			CHANNELS 3 Zrotation Yrotation Xrotation 
			JOINT rfoot
			{
				OFFSET 0.73152 -45.1104 -5.12064
				CHANNELS 3 Zrotation Yrotation Xrotation 
				End Site
				{
					OFFSET -1.1221 -3.69964 12.103
				}
			}
		}
	}
}
JOINT lbuttock
{
	OFFSET 8.77824 4.35084 1.2192
	CHANNELS 3 Zrotation Yrotation Xrotation 
	JOINT lthigh
	{
		OFFSET 0 -1.70687 -2.19456
		CHANNELS 3 Zrotation Yrotation Xrotation 
		JOINT lshin
		{
			OFFSET 0 -36.8199 0.73152
			CHANNELS 3 Zrotation Yrotation Xrotation 
			JOINT lfoot
			{
				OFFSET -0.73152 -45.1104 -5.12064
				CHANNELS 3 Zrotation Yrotation Xrotation 
				End Site
				{
					OFFSET 1.1221 -3.69964 12.103
				}
			}
		}
	}
}
}
MOTION
Frames: 4
Frame Time: 0.00833333
0 0 0 -0.188090882288002 -0.00538530999871353 -0.00125237000553196 -0.051926288364114 -0.00899598999460221 -0.00198482002446492 9.27476E-16 6.83322E-17 0 4.9566E-16 1.98785E-16 1.55301E-18 1.19007E-14 1.59028E-15 7.45443E-17 1.72644E-13 2.54444E-14 -4.96962E-14 1.97338E-12 1.20861E-13 5.92627E-14 3.98899E-16 -9.93923E-17 1.55301E-18 7.98235E-15 0 -1.86361E-17 1.7006E-13 2.8625E-14 5.48646E-14 1.97459E-12 1.39944E-13 -4.06515E-14 -2.03217E-16 -3.88251E-19 0 0.338403554439909 -0.0336827479446569 -2.83766049074455 -0.00605530872786389 -0.0567790295865304 -0.412343202472932 -0.472056139048975 0.120080605911654 3.24961714444573 2.03217E-16 3.88251E-19 0 -0.626761613462358 0.0515566317230331 -3.58112145170669 0.00491739896313124 0.0368589984566799 0.934347193356408 0.476725347698022 -0.108340331291304 2.646414734475 
176.763 -59.1987 -158.376 -2.47939328559266 0.23230048572947 -4.6056079357028 0.352497688144928 0.0658423458975978 -1.55493102695887 -1.86715866737595 -2.19848343013005 -0.281826445055876 7.65152999999998E-14 2.90362E-14 -3.31409E-13 9.55516525842729 2.92709228217449 -31.1219218884275 -1.77422853076391 2.9122407349443 -0.580587839912956 2.84981416985735 2.08674373860876 29.4408430670738 7.64335999999999E-14 2.87345E-14 -3.31412E-13 -1.51801364665921 2.55031561839562 -7.53165307118203 2.569819741466 -4.10697015118484 -0.930536755359191 -0.879302731266092 -1.75644442260705 14.5470855970445 -2.03217E-16 -3.88251E-19 0 1.19826711265245 0.760789221691677 -13.1783826672248 -0.0121014063676029 0.0528227882645448 9.17523393295745 -0.835545989558968 -5.01562234252467 3.79359721601916 2.03217E-16 3.88251E-19 0 1.62754380773655 -0.633883618691772 -8.44175039144782 -0.139827153521059 -0.251893345430704 8.95279723102192 0.844635970188373 6.7614222225733 -10.7236568460444 
175.981 -58.7281 -157.765 -4.8922571998101 0.471692164941072 -9.48510439522439 0.783435599712993 0.141704883129095 -3.18422974868391 -3.83077989032239 -4.53028411498823 -0.598186968578252 1.60353999999999E-13 5.80234E-14 -7.026E-13 19.6754573035624 6.07236504232865 -64.0322651429577 -3.65074005683554 5.99228653423426 -1.19471893231759 5.8747499248926 4.28971342364563 60.6548443858175 1.60289999999999E-13 5.77159E-14 -7.02607E-13 -3.14480993489819 5.25195626977771 -15.6065784761616 5.28749688694579 -8.45008757880868 -1.91472337337261 -1.81730242337705 -3.62032111094314 30.0044038374829 -2.03217E-16 -3.88251E-19 0 2.10608914478893 1.59810472410952 -24.1514926088893 -0.0173610956116327 0.170886485906681 19.3721896032409 -1.21856926064179 -10.4176497234569 4.2466884970319 2.03217E-16 3.88251E-19 0 4.10004374388023 -1.38485094856039 -13.5542345026049 -0.29506663058494 -0.560155563762178 17.4247593896832 1.22754338871176 13.9895224780264 -25.0968953807105 
176.082 -58.3406 -158.038 -7.06200438171845 0.70767264840289 -13.8143745974902 1.16134947293855 0.215518956917545 -4.66083304594327 -5.60146283510056 -6.59544818024083 -0.845478871314155 2.28554999999998E-13 8.67109E-14 -9.94229E-13 28.6654870157154 8.78123182902634 -93.3659223501721 -5.32267382663736 8.7367138548729 -1.74176625291261 8.54945372022134 6.26028914417976 88.3224193799748 2.28502999999998E-13 8.64022E-14 -9.94238E-13 -4.55404428171614 7.65093949877043 -22.5949063752885 7.70946255610891 -12.3209090991339 -2.79160609858489 -2.63790154194735 -5.26933423588489 43.6411700446012 -2.03217E-16 -3.88251E-19 0 2.91797841005372 2.34973414174529 -33.8599174122645 -0.0241932618890475 0.272026387903162 28.3503484356712 -1.56252832147749 -15.287065554763 4.88154080875218 2.03217E-16 3.88251E-19 0 6.13614577030025 -2.0047641276329 -18.1630048010965 -0.429316572812714 -0.829397232629895 24.9896978772176 1.5803875567586 20.5009394770699 -37.4639400838983 
